<svg xmlns="http://www.w3.org/2000/svg" viewBox="0 0 701.25 410"><defs><style>.cls-1{fill:#4a575f;}.cls-2{font-size:40px;font-family:Helvetica-Bold, Helvetica;font-weight:700;}.cls-2,.cls-4{fill:#bacad3;}.cls-3{letter-spacing:-0.07em;}</style></defs><title>backdropImage</title><g id="Layer_2" data-name="Layer 2"><g id="Layer_1-2" data-name="Layer 1"><rect class="cls-1" x="0.47" y="0.47" width="700.31" height="409.06" rx="6.32" ry="6.32"/><path d="M694.46.94a5.86,5.86,0,0,1,5.85,5.85V403.21a5.86,5.86,0,0,1-5.85,5.85H6.79a5.86,5.86,0,0,1-5.85-5.85V6.79A5.86,5.86,0,0,1,6.79.94H694.46m0-.94H6.79A6.79,6.79,0,0,0,0,6.79V403.21A6.79,6.79,0,0,0,6.79,410H694.46a6.79,6.79,0,0,0,6.79-6.79V6.79A6.79,6.79,0,0,0,694.46,0Z"/><text class="cls-2" transform="translate(249.51 93.58)">NO IMAGE<tspan class="cls-3" x="-10.38" y="48">AV</tspan><tspan x="39.29" y="48">AILABLE</tspan></text><g id="pVYBKx.tif"><path class="cls-4" d="M289.62,339.33V229c.43,0,.38-.4.46-.64a7.42,7.42,0,0,1,4.76-4.75c.24-.09.63,0,.63-.46H405.39c.07.37.42.25.63.31a7.52,7.52,0,0,1,5.22,5.14c.07.21,0,.54.38.59V339.14c-.4.16-.36.57-.47.88a7.49,7.49,0,0,1-4,4.44,7.52,7.52,0,0,0-1.73.72H295.47c0-.43-.39-.37-.63-.46a7.36,7.36,0,0,1-4.75-4.75C290,339.73,290.05,339.35,289.62,339.33Zm91.54-108.47h-61v60.9h61Zm0,106.7V299.45h-61v38.11Zm-83.88-91.5h15.27V230.85H297.25Zm91.51-15.24v15.24H404V230.82Zm-91.49,45.71h15.25V261.29H297.27Zm106.71,0V261.32H388.75v15.24ZM297.27,307H312.5V291.83H297.27Zm106.7,0V291.83H388.73v15.24Zm-106.69,15.2v15.27h15.21V322.27Zm91.46,0v15.25H404V322.28Z"/></g></g></g></svg>