<svg xmlns="http://www.w3.org/2000/svg" viewBox="0 0 190.82 62.52"><defs><style>.cls-1{fill:#d94553;}.cls-2{fill:#faf8f8;}</style></defs><title>logo</title><g id="Layer_2" data-name="Layer 2"><g id="Layer_1-2" data-name="Layer 1"><g id="csNKvo.tif"><path class="cls-1" d="M122.47,46.46a4.29,4.29,0,0,1-.92,2,32.91,32.91,0,0,1-15.13,12.06,31.18,31.18,0,0,1-15,1.81,30.08,30.08,0,0,1-15.54-6.65,32.83,32.83,0,0,1-6.49-7,4.13,4.13,0,0,1-1-2.2,3.6,3.6,0,0,0,.45-.87c.88-4.07,1.73-8.14,2.6-12.21.5-2.31,1-4.63,1.52-6.94a1.38,1.38,0,0,1,.24-.42c.07.14.21.27.21.41,0,.59,0,1.17,0,1.75,0,4.75,0,9.5,0,14.25,0,1.29-.68,3.15.39,3.75s2.9.24,4.39.25a1.1,1.1,0,0,0,1.15-1.08,14.41,14.41,0,0,0,0-1.74V13.84c0-.42,0-.84,0-1.25C79.3,11.32,79,11,77.72,11c-1.91,0-3.83,0-5.74,0,1.25-2.33,3.41-3.75,5.45-5.24a29,29,0,0,1,12-5.2,30,30,0,0,1,9.8-.28A33.56,33.56,0,0,1,112.9,5.46a21.29,21.29,0,0,1,6,5.46c-2,.29-2,.29-2,2.23q0,13.94,0,27.87c0,1.41,0,2.82,0,4.23,0,.81.22,1.22,1.12,1.19C119.48,46.4,121,46.45,122.47,46.46ZM94.85,28.55c0,4.67,0,9.34,0,14,0,1.22-.55,2.77.31,3.59s2.37.26,3.6.27c2,0,2.08-.12,2.09-2.13,0-3.58,0-7.17,0-10.75,0-1.88.16-1.7,1.59-1.68,1.75,0,3.5,0,5.25,0,1.92-.05,2.15-.32,2.17-2.15,0-.83,0-1.67,0-2.5.08-1-.31-1.33-1.27-1.31-2.25,0-4.5,0-6.75,0-.76,0-1-.29-1-1,0-2.33,0-4.67,0-7,0-.79.35-1,1.05-1,2.25,0,4.5,0,6.75,0,1.15,0,2.59.48,3.38-.22s.32-2.36.35-3.57c.05-2-.1-2.15-2.06-2.16-4.58,0-9.16,0-13.74,0-1.58,0-1.74-.15-1.74,1.84C94.86,18.05,94.85,23.3,94.85,28.55Z"/><path class="cls-2" d="M72,11c1.91,0,3.83-.05,5.74,0,1.29,0,1.58.34,1.65,1.61,0,.41,0,.83,0,1.25V43.59a14.41,14.41,0,0,1,0,1.74,1.1,1.1,0,0,1-1.15,1.08c-1.49,0-3.24.4-4.39-.25s-.38-2.46-.39-3.75c-.06-4.75,0-9.5,0-14.25,0-.58,0-1.16,0-1.75,0-.14-.14-.27-.21-.41a1.38,1.38,0,0,0-.24.42c-.51,2.31-1,4.63-1.52,6.94-.87,4.07-1.72,8.14-2.6,12.21a3.6,3.6,0,0,1-.45.87c-4.52-.07-3.37.45-4.41-3.84C62.67,37.32,61.58,32,60.4,26.69a6.28,6.28,0,0,0-.24-.69c-.28.23-.24.55-.24.86v17c0,2.78.14,2.62-2.54,2.59-3.19,0-3.4.62-3.39-3.36,0-9.73,0-19.47,0-29.21,0-.49,0-1,0-1.49A1.21,1.21,0,0,1,55.4,11c1.5,0,3,0,4.5,0s1.65,0,2.09,1.78c.68,2.71,1.26,5.45,1.87,8.17.25,1.13.46,2.26.69,3.39.7,2.5.94,5.11,1.81,7.57.15.42-.14,1,.31,1.32l.48-1.37a2,2,0,0,0,.19-.45c1-5.55,2.43-11,3.53-16.5.21-1,.85-2,.47-3.13a.87.87,0,0,1,.14-.27A.59.59,0,0,0,72,11Z"/><path class="cls-2" d="M126.83,27.87q0-7.36.07-14.73c0-2,.07-2.07,2.11-2.12,3.86-.1,3.86-.1,5.15,3.52q2.53,7.09,5.1,14.18c.14.38.3.75.44,1.13A1.45,1.45,0,0,0,140,28.7v-8c0-2.5,0-5,0-7.49,0-2.14.06-2.17,2.29-2.19.74,0,1.49,0,2.24,0,1.2,0,1.61.4,1.74,1.56,0,.41,0,.83,0,1.25V44.05c0,.33,0,.67,0,1,0,.9-.42,1.39-1.35,1.38s-2-.06-3,0c-1.21.09-1.69-.45-2.08-1.58-1.71-5-3.57-9.92-5.35-14.88a6.22,6.22,0,0,0-.89-2c-.52.65-.26,1.4-.26,2.1,0,4.75,0,9.49,0,14.24,0,2-.06,2.08-2.1,2.11-.91,0-1.83,0-2.74,0-1.24-.07-1.56-.41-1.57-1.7,0-3.16,0-6.33,0-9.49,0-.42,0-.83-.07-1.25Q126.82,30.94,126.83,27.87Z"/><path class="cls-2" d="M172.51,28.68c0-5.08,0-10.16,0-15.23,0-2.41,0-2.42,2.28-2.43,3.25,0,6.49,0,9.74,0,4.06,0,6.31,2.68,6.29,6.33s0,7.33,0,11a6,6,0,0,1-2.21,5,1.78,1.78,0,0,0-.69,2.15L190,43.4a9.65,9.65,0,0,1,.32,1.17c.29,1.74.22,1.83-1.54,1.86h-1.75c-2.84,0-2.21,0-3-2.34-.86-2.74-1.46-5.56-2.18-8.35-.26-1-.56-1.05-2.12-1-.92,0-1.06.52-1.06,1.28q0,4.24,0,8.49c0,1.68-.18,1.85-1.8,1.89-.91,0-1.83,0-2.74,0-1.48,0-1.68-.21-1.69-1.77C172.49,39.33,172.51,34,172.51,28.68Zm6-6.11c0,1.66,0,3.33,0,5,0,.79.24,1.29,1.12,1.28,1.08,0,2.17,0,3.24,0,1.24-.07,1.88-.63,1.91-1.82.06-2.74.07-5.49,0-8.23,0-1.21-.68-1.75-1.92-1.81s-2.33,0-3.5,0c-.59,0-.88.24-.86.9C178.55,19.41,178.52,21,178.52,22.57Z"/><path class="cls-2" d="M150.43,28.71c0-5.16,0-10.33,0-15.49,0-2.17,0-2.19,2.28-2.2,2.91,0,5.83,0,8.74,0a8.16,8.16,0,0,1,1.72.13c3.37.7,5,2.75,5.08,6.32s0,7.16,0,10.75c0,3.75,0,7.49,0,11.24a8.61,8.61,0,0,1-.16,2c-.84,3.55-2.4,4.93-6,5-3.33.05-6.66,0-10,0-1.6,0-1.63,0-1.64-1.71C150.42,39.38,150.43,34,150.43,28.71Zm6-.16c0,3.5,0,7,0,10.49,0,1.69.32,1.5,1.56,1.48.92,0,1.84-.05,2.75,0s1.32-.59,1.53-1.34a5.11,5.11,0,0,0,.08-1.24V19.43a4.67,4.67,0,0,0,0-.75A1.75,1.75,0,0,0,160.56,17c-1-.07-2,0-3,0-.85-.05-1.14.25-1.13,1.13C156.47,21.55,156.45,25.05,156.45,28.55Z"/><path class="cls-2" d="M0,28.77C0,23.52,0,18.27,0,13c0-1.83.16-2,2-2q7,0,14,0c1.68,0,1.86.17,1.86,1.85,0,1.23.51,2.77-.23,3.63s-2.51.35-3.81.4c-2.16.07-4.33,0-6.49,0-.7,0-1.07.19-1.06,1q0,3.51,0,7c0,.78.36,1,1.07,1,2.08,0,4.16,0,6.24,0,1.5,0,1.66.2,1.7,1.75,0,.75,0,1.5,0,2.25,0,1.55-.27,1.85-1.83,1.9s-3,0-4.5,0c-.5,0-1,0-1.5,0-.83-.05-1.19.3-1.18,1.16,0,2.41,0,4.83,0,7.24,0,1.58,0,3.17,0,4.75,0,1.16-.31,1.45-1.44,1.5s-2.17,0-3.25,0C.22,46.38,0,46.19,0,44.76c0-4.17,0-8.33,0-12.5Z"/><path class="cls-2" d="M38.45,25.9c0,4.41,0,8.83,0,13.24,0,1.33,0,1.36,1.39,1.37,2.74,0,5.49,0,8.24,0,1.48,0,1.7.23,1.7,1.75,0,5,.44,4.09-4.05,4.14-3.91,0-7.82,0-11.73,0-1.52,0-1.56-.05-1.56-1.53q0-16.11,0-32.22c0-1.4.21-1.59,1.56-1.64,1.17,0,2.33,0,3.5,0,.65,0,.89.34.92.9s0,1.17,0,1.75Q38.46,19.78,38.45,25.9Z"/><path class="cls-2" d="M28.25,28.67q0,7.88,0,15.74c0,1.85-.13,2-1.93,2-1,0-2,0-3,0A1.12,1.12,0,0,1,22,45.27c0-.5,0-1,0-1.5V13.53c0-.33,0-.66,0-1,.07-1.2.28-1.45,1.45-1.5s2.17,0,3.25,0c1.29,0,1.53.3,1.53,1.65C28.26,18,28.25,23.34,28.25,28.67Z"/><path class="cls-2" d="M122.47,46.46c-1.49,0-3-.06-4.48,0-.9,0-1.14-.38-1.12-1.19,0-1.41,0-2.82,0-4.23q0-13.94,0-27.87c0-1.94,0-1.94,2-2.23.66,0,1.31.08,2,.1,1.9.06,2,.12,2,1.93,0,1.31.05,2.63.07,3.95l-.06,29Z"/><path class="cls-1" d="M122.89,45.9l.06-29a25.81,25.81,0,0,1,3.42,10c.06.37-.13.85.46,1q0,3.06,0,6.11c-.86,1.16-.5,2.59-.86,3.88A30.37,30.37,0,0,1,122.89,45.9Z"/><path class="cls-1" d="M71.34,11.81c.38,1.12-.26,2.1-.47,3.13-1.1,5.52-2.58,11-3.53,16.5a2,2,0,0,1-.19.45l-.48,1.37c-.45-.36-.16-.9-.31-1.32-.87-2.46-1.11-5.07-1.81-7.57,1.11-1.34,1.11-3.12,1.82-4.64C67.71,16.88,68.82,13.91,71.34,11.81Z"/><path class="cls-1" d="M72,11a.59.59,0,0,1-.48.55C71.42,11.16,71.55,11,72,11Z"/><path class="cls-2" d="M94.85,28.55c0-5.25,0-10.5,0-15.75,0-2,.16-1.85,1.74-1.84,4.58,0,9.16,0,13.74,0,2,0,2.11.13,2.06,2.16,0,1.21.59,2.74-.35,3.57s-2.23.2-3.38.22c-2.25,0-4.5,0-6.75,0-.7,0-1.06.17-1.05,1,0,2.33,0,4.67,0,7,0,.73.25,1,1,1,2.25,0,4.5,0,6.75,0,1,0,1.35.33,1.27,1.31-.07.83,0,1.67,0,2.5,0,1.83-.25,2.1-2.17,2.15-1.75.05-3.5,0-5.25,0-1.43,0-1.6-.2-1.59,1.68,0,3.58,0,7.17,0,10.75,0,2-.13,2.15-2.09,2.13-1.23,0-2.76.54-3.6-.27s-.29-2.37-.31-3.59C94.83,37.89,94.85,33.22,94.85,28.55Z"/></g></g></g></svg>